:SAMPLES-PER-SECOND 30
:FULLY-SPECIFIED
:DEGREES
271
root  -6.24227 40.6458 4.8129 67.8286 86.8461 65.8135
RightUpLeg  3.54088 -11.9327 -13.0697
RightLeg  6.67802 -6.05878 2.5819
RightFoot  -8.78895 -0.190215 5.88403
RightToes  0.00048216 0.542163 -0.142577
Spine  3.98086 1.35714 1.56365
Spine1  1.98676 1.76577 -1.41742
HEad  8.02597 15.6685 -1.71736
LeftShoulder1  1.89126 -3.94623 -18.7674
LeftArm  -18.5507 10.6925 -4.47802
LeftForeArm  14.2197 -8.87687 -2.13323
LeftHand  -0.25398 0.0180481 5.50724
RightShoulder  1.37446 2.64104 15.6195
RightArm  -17.6984 -14.0147 8.96333
RightForeArm  -8.95044 8.20449 4.46714
RightHand  -3.25807 9.56872 -25.3254
LeftUpLeg  1.1832 4.73604 0.167881
LeftLeg  6.10959 16.5289 -2.49633
LeftFoot  -9.78673 0.0858105 -2.00156
LeftToes  1.06246e-005 4.65855e-005 -8.18505e-006
272
root  -6.10244 40.5041 4.37878 56.5952 86.3114 55.1229
RightUpLeg  2.95855 -12.7349 -13.787
RightLeg  8.97547 -3.76171 1.50378
RightFoot  -10.0993 -0.145243 7.15436
RightToes  0.00048216 0.542163 -0.142577
Spine  4.10543 1.58117 1.88016
Spine1  2.33696 2.11778 -2.21136
HEad  8.35509 15.7411 -1.51222
LeftShoulder1  1.92875 -3.96663 -19.2315
LeftArm  -17.7586 11.022 -5.11345
LeftForeArm  12.5154 -7.21545 -2.20724
LeftHand  -0.25398 0.0180481 5.50724
RightShoulder  1.41606 2.72269 16.0284
RightArm  -17.0319 -13.6165 8.53555
RightForeArm  -6.69345 8.63703 4.5638
RightHand  -3.42254 10.1391 -25.6207
LeftUpLeg  1.44863 5.21367 -0.499514
LeftLeg  7.73752 16.6926 -2.20459
LeftFoot  -11.7392 0.061731 -2.29936
LeftToes  1.06246e-005 4.65855e-005 -8.18505e-006
273
root  -5.97269 40.2943 3.98955 43.9063 85.1608 42.9765
RightUpLeg  0.826871 -12.2933 -13.9844
RightLeg  13.5832 -2.85274 -0.534437
RightFoot  -11.4076 -0.074799 8.02664
RightToes  0.00048216 0.542163 -0.142577
Spine  4.6934 2.02933 1.80574
Spine1  2.3598 2.68191 -3.17732
HEad  8.74301 15.9472 -1.10763
LeftShoulder1  1.95695 -3.9157 -19.8266
LeftArm  -17.0889 11.528 -5.70876
LeftForeArm  10.7453 -5.62178 -2.24428
LeftHand  -0.25398 0.0180481 5.50724
RightShoulder  1.48175 2.87354 16.5648
RightArm  -16.5943 -13.3694 8.19281
RightForeArm  -6.41627 8.83333 4.69725
RightHand  -3.31868 9.82207 -25.3654
LeftUpLeg  1.65383 5.91308 -1.10438
LeftLeg  9.68188 17.2419 -2.0069
LeftFoot  -14.0469 0.0129461 -2.98762
LeftToes  1.06246e-005 4.65855e-005 -8.18505e-006
274
root  -5.85205 40.069 3.6618 35.0944 83.3573 34.9492
RightUpLeg  -2.83035 -8.29582 -13.9681
RightLeg  21.133 -6.58388 -3.11392
RightFoot  -11.7183 -0.0546141 7.03018
RightToes  0.00048216 0.542163 -0.142577
Spine  5.98912 2.54374 1.03769
Spine1  2.25145 3.25856 -3.89835
HEad  8.57333 16.5362 -0.743764
LeftShoulder1  1.98183 -3.80163 -20.6254
LeftArm  -16.7134 12.2384 -6.08172
LeftForeArm  9.58919 -4.22404 -2.1439
LeftHand  -0.25398 0.0180481 5.50724
RightShoulder  1.59297 3.1803 17.2148
RightArm  -16.2451 -13.292 8.2691
RightForeArm  -7.32949 9.24575 4.92326
RightHand  -3.07139 8.99238 -24.8545
LeftUpLeg  2.1987 6.71607 -1.86147
LeftLeg  11.4265 18.096 -1.86077
LeftFoot  -16.2071 -0.0601771 -3.71406
LeftToes  1.06246e-005 4.65855e-005 -8.18505e-006
275
root  -5.6911 39.9086 3.37193 29.2853 81.5564 30.1259
RightUpLeg  -7.00068 -5.38607 -13.7045
RightLeg  29.5412 -9.25384 -5.81656
RightFoot  -10.745 -0.0971206 4.78649
RightToes  0.00048216 0.542163 -0.142577
Spine  7.49418 2.79967 0.351966
Spine1  2.56963 3.62247 -4.49788
HEad  7.75365 17.5615 -0.55179
LeftShoulder1  1.99819 -3.68752 -21.3202
LeftArm  -16.4371 13.3521 -6.7188
LeftForeArm  9.37156 -3.44703 -2.02968
LeftHand  -0.25398 0.0180481 5.50724
RightShoulder  1.76358 3.64807 18.1105
RightArm  -15.834 -13.4125 9.11885
RightForeArm  -8.662 9.96958 5.21456
RightHand  -3.06502 8.8356 -25.0563
LeftUpLeg  3.276 7.45801 -2.60218
LeftLeg  12.4027 19.0696 -1.65932
LeftFoot  -17.6682 -0.118916 -4.07438
LeftToes  1.06246e-005 4.65855e-005 -8.18505e-006
276
root  -5.44295 39.8255 3.10732 23.6994 80.2899 25.2476
RightUpLeg  -11.0471 -4.75691 -12.5291
RightLeg  35.727 -8.34424 -6.61666
RightFoot  -9.82355 -0.112955 3.41136
RightToes  0.00048216 0.542163 -0.142577
Spine  8.54142 2.67793 0.449662
Spine1  3.25495 3.7133 -5.29253
HEad  7.01792 18.8617 -0.644701
LeftShoulder1  2.01576 -3.61425 -21.8825
LeftArm  -16.0198 14.9124 -8.24066
LeftForeArm  9.98402 -3.56577 -2.08872
LeftHand  -0.25398 0.0180481 5.50724
RightShoulder  1.9716 4.15412 19.2885
RightArm  -15.1557 -13.9521 10.9046
RightForeArm  -9.64804 10.8583 5.51038
RightHand  -3.27456 9.37781 -25.7621
LeftUpLeg  4.36636 7.85647 -2.94161
LeftLeg  12.8338 20.1723 -1.31244
LeftFoot  -18.6241 -0.156101 -4.20587
LeftToes  1.06246e-005 4.65855e-005 -8.18505e-006
277
root  -5.09431 39.8065 2.87197 17.3729 79.5961 18.9664
RightUpLeg  -14.7189 -5.50768 -10.1538
RightLeg  37.9221 -5.87738 -5.17339
RightFoot  -9.42046 -0.126006 3.67668
RightToes  0.00048216 0.542163 -0.142577
Spine  9.02105 2.30725 1.05788
Spine1  3.62605 3.49889 -5.77226
HEad  7.03836 20.4176 -1.1459
LeftShoulder1  2.04782 -3.51366 -22.7934
LeftArm  -15.6821 16.7045 -10.7558
LeftForeArm  11.0937 -4.37372 -2.26439
LeftHand  -0.25398 0.0180481 5.50724
RightShoulder  2.14806 4.50414 20.4506
RightArm  -14.365 -14.9671 13.685
RightForeArm  -9.19508 11.5802 5.68957
RightHand  -3.31324 9.54453 -25.7734
LeftUpLeg  5.11808 7.65918 -2.70182
LeftLeg  12.7887 21.391 -1.05878
LeftFoot  -19.4494 -0.203893 -4.51673
LeftToes  1.06246e-005 4.65855e-005 -8.18505e-006
278
root  -4.67251 39.8209 2.67651 11.1735 79.2758 12.2916
RightUpLeg  -17.8933 -6.97135 -6.87588
RightLeg  36.2703 -4.47126 -3.77075
RightFoot  -8.8199 -0.162101 4.63151
RightToes  0.00048216 0.542163 -0.142577
Spine  9.37986 1.83872 1.27252
Spine1  3.29041 2.9115 -5.20573
HEad  7.69239 22.2841 -1.92213
LeftShoulder1  2.11709 -3.39953 -24.3496
LeftArm  -15.9941 18.5791 -14.0813
LeftForeArm  11.8326 -5.46842 -2.31446
LeftHand  -0.25398 0.0180481 5.50724
RightShoulder  2.2757 4.69492 21.446
RightArm  -13.9464 -16.3726 17.2895
RightForeArm  -6.99784 11.8548 5.68357
RightHand  -3.0347 8.95621 -24.6185
LeftUpLeg  5.62466 7.13221 -2.11146
LeftLeg  12.3115 22.3793 -1.05533
LeftFoot  -20.2137 -0.269512 -5.03386
LeftToes  1.06246e-005 4.65855e-005 -8.18505e-006
279
root  -4.20937 39.8312 2.52018 5.94104 79.2949 6.57887
RightUpLeg  -20.3376 -8.80056 -3.24207
RightLeg  31.8429 -4.77049 -3.41313
RightFoot  -8.03821 -0.205307 5.23379
RightToes  0.00048216 0.542163 -0.142577
Spine  10.1241 1.30363 0.781972
Spine1  2.6168 2.02263 -3.71627
HEad  8.35696 24.1979 -2.66763
LeftShoulder1  2.33926 -3.62507 -26.57
LeftArm  -17.1705 20.3626 -17.822
LeftForeArm  11.1895 -6.64952 -2.16878
LeftHand  -0.25398 0.0180481 5.50724
RightShoulder  2.45473 4.97745 22.7004
RightArm  -13.8376 -18.253 21.1778
RightForeArm  -4.6689 11.8614 5.63075
RightHand  -2.68209 8.16016 -23.1089
LeftUpLeg  6.20828 6.75927 -1.46681
LeftLeg  11.7401 22.8234 -1.11519
LeftFoot  -20.7977 -0.31717 -5.341
LeftToes  1.06246e-005 4.65855e-005 -8.18505e-006
280
root  -3.69676 39.7928 2.39749 1.98404 79.7295 2.54677
RightUpLeg  -21.9136 -11.0176 0.251797
RightLeg  25.821 -4.92431 -2.8576
RightFoot  -7.43804 -0.245159 5.70184
RightToes  0.00048216 0.542163 -0.142577
Spine  11.2979 0.710768 -0.11002
Spine1  2.37848 1.02412 -2.05722
HEad  8.50649 25.7444 -3.3921
LeftShoulder1  2.90072 -4.56681 -29.7633
LeftArm  -18.5427 21.3352 -21.0596
LeftForeArm  9.35162 -7.75512 -2.05946
LeftHand  -0.25398 0.0180481 5.50724
RightShoulder  2.77115 5.49468 24.6509
RightArm  -13.4332 -20.5866 24.9985
RightForeArm  -3.83618 11.9502 5.73471
RightHand  -2.46074 7.52656 -22.2721
LeftUpLeg  7.09618 6.68303 -0.958063
LeftLeg  11.5477 22.6113 -1.02536
LeftFoot  -21.3803 -0.338762 -5.31414
LeftToes  1.06246e-005 4.65855e-005 -8.18505e-006
281
root  -3.0982 39.6763 2.30604 0.163361 80.5698 1.0105
RightUpLeg  -22.8403 -13.6206 3.14345
RightLeg  19.1584 -3.38762 -1.42042
RightFoot  -6.5404 -0.325202 6.66242
RightToes  0.00048216 0.542163 -0.142577
Spine  12.455 0.0933614 -1.25618
Spine1  2.99662 0.0152875 -0.658863
HEad  8.00591 26.8671 -4.3334
LeftShoulder1  3.82071 -6.00009 -34.0676
LeftArm  -19.0358 20.5752 -22.9747
LeftForeArm  7.925 -8.41918 -2.25268
LeftHand  -0.25398 0.0180481 5.50724
RightShoulder  3.15115 6.03858 26.9818
RightArm  -12.8345 -22.9519 29.2036
RightForeArm  -3.24833 11.9185 5.94222
RightHand  -2.31895 6.91771 -22.0244
LeftUpLeg  8.3067 6.71564 -0.775089
LeftLeg  11.677 21.7485 -0.920584
LeftFoot  -22.19 -0.3648 -5.23958
LeftToes  1.06246e-005 4.65855e-005 -8.18505e-006
282
root  -2.39715 39.4795 2.24096 2.27179 81.6484 3.46159
RightUpLeg  -23.3691 -13.8217 3.90932
RightLeg  12.8296 -3.37778 0.676944
RightFoot  -5.00576 -0.446316 7.45224
RightToes  0.00048216 0.542163 -0.142577
Spine  13.3091 -0.516477 -2.75363
Spine1  4.07936 -0.990614 0.401287
HEad  7.21129 27.7889 -5.31569
LeftShoulder1  4.79392 -7.22157 -38.4952
LeftArm  -18.3232 18.0734 -23.9915
LeftForeArm  8.32859 -8.49088 -2.78036
LeftHand  -0.25398 0.0180481 5.50724
RightShoulder  3.46054 6.38039 29.0301
RightArm  -12.9191 -25.0674 34.3964
RightForeArm  -0.515438 11.1936 6.0341
RightHand  -2.12023 6.17442 -21.4368
LeftUpLeg  9.6958 6.67145 -1.11877
LeftLeg  11.7798 20.5932 -1.01909
LeftFoot  -23.0448 -0.384725 -5.10137
LeftToes  1.06246e-005 4.65855e-005 -8.18505e-006
283
root  -1.58859 39.1982 2.18839 9.90179 82.703 11.4775
RightUpLeg  -23.5756 -8.90084 1.29869
RightLeg  7.81955 -7.69062 3.08918
RightFoot  -3.72558 -0.521985 7.45172
RightToes  0.00048216 0.542163 -0.142577
Spine  14.1717 -1.11129 -4.48958
Spine1  4.84713 -1.94433 0.93462
HEad  6.71544 28.5944 -5.85682
LeftShoulder1  5.42986 -7.81121 -41.61
LeftArm  -17.0894 14.91 -25.3491
LeftForeArm  10.6712 -8.52309 -3.45655
LeftHand  -0.25398 0.0180481 5.50724
RightShoulder  3.69753 6.59645 30.6518
RightArm  -13.5851 -27.2252 40.2604
RightForeArm  3.99841 9.95307 6.04336
RightHand  -1.82089 5.26651 -20.0074
LeftUpLeg  11.2569 6.62048 -1.98002
LeftLeg  11.9753 19.5535 -1.25359
LeftFoot  -23.7959 -0.363173 -4.63778
LeftToes  1.06246e-005 4.65855e-005 -8.18505e-006
284
root  -0.639494 38.8357 2.12602 22.1087 83.5686 24.3455
RightUpLeg  -24.2945 -6.42422 -0.557036
RightLeg  5.59412 -7.1236 3.69529
RightFoot  -3.25512 -0.540281 7.30689
RightToes  0.00048216 0.542163 -0.142577
Spine  15.3217 -1.74772 -5.93867
Spine1  5.12964 -2.84702 0.912413
HEad  6.76557 29.2751 -6.05647
LeftShoulder1  5.6792 -7.93377 -43.1407
LeftArm  -15.9919 12.2899 -27.4534
LeftForeArm  14.4675 -9.53054 -4.05028
LeftHand  -0.25398 0.0180481 5.50724
RightShoulder  3.9375 6.85867 32.0518
RightArm  -13.1724 -29.7088 45.6886
RightForeArm  8.45207 9.37465 6.33616
RightHand  -1.4499 4.07433 -17.9654
LeftUpLeg  13.343 6.68329 -2.93808
LeftLeg  12.3147 18.4373 -1.56263
LeftFoot  -24.7506 -0.34583 -4.20207
LeftToes  1.06246e-005 4.65855e-005 -8.18505e-006
285
root  0.49455 38.4419 2.03723 34.9071 84.452 37.858
RightUpLeg  -25.3478 -6.28741 -1.00166
RightLeg  6.88258 -3.02807 2.78103
RightFoot  -2.3923 -0.545358 6.76184
RightToes  0.00048216 0.542163 -0.142577
Spine  16.1947 -2.53914 -6.43554
Spine1  5.5194 -3.8233 0.826471
HEad  7.12421 29.9862 -6.65062
LeftShoulder1  5.79912 -7.96139 -43.9868
LeftArm  -14.6983 10.8514 -29.6425
LeftForeArm  19.0379 -12.2876 -4.31982
LeftHand  -0.25398 0.0180481 5.50724
RightShoulder  4.14388 7.11225 33.0916
RightArm  -10.0097 -32.2738 49.6665
RightForeArm  12.7834 10.3816 7.00475
RightHand  -1.11248 2.83661 -15.8986
LeftUpLeg  16.0421 6.72961 -3.35095
LeftLeg  12.2618 16.8714 -1.96879
LeftFoot  -26.0537 -0.407014 -4.35927
LeftToes  1.06246e-005 4.65855e-005 -8.18505e-006
